<?xml version="1.0" encoding="UTF-8"?>
<svg id="Ebene_2" data-name="Ebene 2" xmlns="http://www.w3.org/2000/svg" viewBox="0 0 36 36">
  <g id="katman_1" data-name="katman 1">
    <path d="M36,21v-6l-4.459-.495c-.33-1.284-.836-2.495-1.494-3.61l2.801-3.501-4.242-4.243-3.5,2.802c-1.115-.659-2.326-1.163-3.611-1.495l-.494-4.457h-6l-.496,4.457c-1.285,.332-2.496,.836-3.609,1.495l-3.502-2.802L3.148,7.394l2.803,3.501c-.658,1.114-1.162,2.326-1.494,3.61l-4.457,.495v6l4.457,.495c.332,1.285,.836,2.496,1.494,3.61l-2.803,3.501,4.244,4.243,3.502-2.802c1.113,.658,2.324,1.164,3.609,1.494l.496,4.458h6l.494-4.458c1.285-.33,2.496-.835,3.609-1.494l3.502,2.802,4.242-4.243-2.801-3.502c.66-1.113,1.164-2.324,1.494-3.609l4.459-.495Zm-18,2c-2.762,0-5-2.241-5-5s2.238-5,5-5,5,2.238,5,5-2.242,5-5,5Z" style="fill: #fff;"/>
  </g>
</svg>