<?xml version="1.0" encoding="UTF-8"?>
<svg id="Ebene_2" data-name="Ebene 2" xmlns="http://www.w3.org/2000/svg" viewBox="0 0 36 36">
  <g id="katman_1" data-name="katman 1">
    <path d="M36,14h-12l4.846-4.846c-2.619-3.208-6.572-5.154-10.846-5.154-3.859,0-7.359,1.57-9.895,4.106-2.535,2.535-4.105,6.035-4.105,9.894,0,7.72,6.281,14,14,14,3.805,0,7.328-1.551,9.891-4.108l2.826,2.825c-3.297,3.289-7.826,5.283-12.717,5.283C8.074,36,0,27.926,0,18,0,13.038,2.019,8.537,5.277,5.278,8.537,2.019,13.037,0,18,0c5.353,0,10.324,2.371,13.691,6.31l4.309-4.31V14Z" style="fill: #fff;"/>
  </g>
</svg>